<svg xmlns="http://www.w3.org/2000/svg" width="120" height="40" viewBox="0 0 120 40" fill="none">
  <!-- Casa (ícone à esquerda) -->
  <g transform="translate(5, 8)">
    <!-- Telhado da casa -->
    <path d="M12 4 L2 12 L22 12 Z" fill="#dc2626" stroke="#b91c1c" stroke-width="1"/>
    <!-- Paredes da casa -->
    <rect x="4" y="12" width="16" height="16" fill="#fef3c7" stroke="#f59e0b" stroke-width="1"/>
    <!-- Porta -->
    <rect x="10" y="20" width="4" height="8" fill="#7c2d12"/>
    <!-- Janela -->
    <rect x="6" y="16" width="3" height="3" fill="#3b82f6"/>
    <!-- Chaminé -->
    <rect x="16" y="8" width="2" height="6" fill="#6b7280"/>
  </g>
  
  <!-- Seta (no meio) -->
  <g transform="translate(45, 15)">
    <path d="M0 5 L25 5 L20 0 M25 5 L20 10" stroke="#059669" stroke-width="2" fill="none" stroke-linecap="round" stroke-linejoin="round"/>
  </g>
  
  <!-- Escola (ícone à direita) -->
  <g transform="translate(85, 8)">
    <!-- Telhado da escola -->
    <path d="M12 4 L2 12 L22 12 Z" fill="#dc2626" stroke="#b91c1c" stroke-width="1"/>
    <!-- Prédio da escola -->
    <rect x="4" y="12" width="16" height="16" fill="#fbbf24" stroke="#f59e0b" stroke-width="1"/>
    <!-- Porta -->
    <rect x="10" y="20" width="4" height="8" fill="#7c2d12"/>
    <!-- Janelas -->
    <rect x="6" y="16" width="3" height="3" fill="#3b82f6"/>
    <rect x="15" y="16" width="3" height="3" fill="#3b82f6"/>
  </g>
</svg>